<?xml version="1.0" encoding="utf-8"?>
<!-- Generator: Adobe Illustrator 16.0.0, SVG Export Plug-In . SVG Version: 6.00 Build 0)  -->
<!DOCTYPE svg PUBLIC "-//W3C//DTD SVG 1.1//EN" "http://www.w3.org/Graphics/SVG/1.1/DTD/svg11.dtd">
<svg version="1.1" id="Layer_1" xmlns="http://www.w3.org/2000/svg" xmlns:xlink="http://www.w3.org/1999/xlink" x="0px" y="0px"
	 width="36px" height="36px" viewBox="6.99 1.99 36 36" enable-background="new 6.99 1.99 36 36" xml:space="preserve">
<g>
	<path d="M24.99,37.99c-4.808,0-9.328-1.873-12.728-5.272S6.99,24.798,6.99,19.99c0-4.808,1.872-9.328,5.272-12.728
		c3.4-3.4,7.92-5.272,12.728-5.272s9.328,1.872,12.728,5.272s5.272,7.92,5.272,12.728c0,4.808-1.873,9.328-5.272,12.728
		S29.798,37.99,24.99,37.99z M24.99,3.977c-8.83,0-16.014,7.184-16.014,16.014S16.16,36.004,24.99,36.004S41.004,28.82,41.004,19.99
		S33.82,3.977,24.99,3.977z M34.16,18.793h-7.99v-7.99c0-0.232-0.188-0.42-0.421-0.42h-1.514c-0.232,0-0.421,0.188-0.421,0.42v7.991
		h-7.99c-0.232,0-0.421,0.188-0.421,0.42v1.514c0,0.232,0.188,0.42,0.421,0.42h7.991v7.99c0,0.232,0.188,0.421,0.42,0.421h1.514
		c0.232,0,0.421-0.188,0.421-0.421v-7.99h7.99c0.232,0,0.42-0.188,0.42-0.42v-1.514C34.58,18.981,34.393,18.793,34.16,18.793z"/>
</g>
</svg>
