<?xml version="1.0" encoding="utf-8"?>
<!-- Generator: Adobe Illustrator 16.0.0, SVG Export Plug-In . SVG Version: 6.00 Build 0)  -->
<!DOCTYPE svg PUBLIC "-//W3C//DTD SVG 1.1//EN" "http://www.w3.org/Graphics/SVG/1.1/DTD/svg11.dtd">
<svg version="1.1" id="Layer_1" xmlns="http://www.w3.org/2000/svg" xmlns:xlink="http://www.w3.org/1999/xlink" x="0px" y="0px"
	 width="50px" height="50px" viewBox="0 0 50 50" enable-background="new 0 0 50 50" xml:space="preserve">
<path fill="none" d="M22.8,28.894v-2.362l-3.416,1.006c0.345,0.375,0.708,0.731,1.102,1.058c0.129-0.008,0.256-0.02,0.387-0.02
	C21.547,28.575,22.193,28.689,22.8,28.894z"/>
<path fill="none" d="M25.884,10.799c0.792-0.024,1.406,0.679,1.281,1.46v7.354v11.559c0.192,0.009,0.382,0.027,0.576,0.027
	c6.246,0,11.309-5,11.309-11.167c0-6.168-5.062-11.168-11.309-11.168c-3.412,0-6.464,1.499-8.537,3.859l6.346-1.868
	C25.658,10.823,25.771,10.803,25.884,10.799z"/>
<path fill="#010101" d="M24.788,35.536c-2.471-0.462-4.735-1.495-6.663-2.949c-1.758,0.644-3.061,2.25-3.25,4.176
	c-0.015,0.16-0.024,0.323-0.024,0.487c0,2.732,2.236,4.969,4.969,4.969c1.454,0,2.763-0.638,3.674-1.642
	c0.801-0.883,1.295-2.049,1.295-3.327c0-0.019-0.002-0.034-0.002-0.051c0.001-0.022,0.002-0.047,0.002-0.069V35.536z"/>
<path fill="#010101" d="M12.58,24.849c-0.327-1.009-0.557-2.059-0.672-3.145l-2.3,0.678c-0.526,0.155-0.72,0.569-0.72,0.955V29.3
	v7.979c-0.834-0.633-1.86-1.022-2.981-1.022c-2.733,0-4.969,2.236-4.969,4.968c0,2.303,1.588,4.246,3.723,4.804
	c0.399,0.104,0.815,0.166,1.246,0.166c2.698,0,4.908-2.182,4.963-4.868c0.004-0.033,0.006-0.067,0.006-0.102V30.043l3.733-1.1
	C13.743,27.696,13.056,26.318,12.58,24.849z"/>
<g>
	<path fill="#010101" d="M25.884,10.799c-0.113,0.004-0.226,0.024-0.334,0.057l-6.346,1.868c-1.722,1.96-2.771,4.511-2.771,7.309
		c0,0.113,0.014,0.222,0.017,0.334c0.033,1.107,0.225,2.173,0.561,3.176l7.637-2.249v9.463h-0.001
		c0.047,0.014,0.092,0.032,0.141,0.045c0.764,0.204,1.559,0.329,2.377,0.37V19.614v-7.354C27.29,11.479,26.676,10.775,25.884,10.799
		z"/>
	<path fill="#010101" d="M24.647,30.758c-0.641-0.18-1.258-0.408-1.847-0.69C22.8,30.067,23.767,30.776,24.647,30.758z"/>
</g>
<path fill="#C6C5C5" d="M49.156,36.625l-8.107-7.942c1.65-2.486,2.618-5.457,2.618-8.649c0-8.705-7.144-15.786-15.926-15.786
	c-6.856,0-12.697,4.325-14.937,10.36c-0.628,1.695-0.989,3.517-0.989,5.425c0,0.565,0.033,1.122,0.092,1.671
	c0.116,1.085,0.346,2.136,0.672,3.145c0.477,1.47,1.163,2.848,2.028,4.095c0.451,0.651,0.958,1.259,1.5,1.834
	c0.62,0.658,1.293,1.263,2.018,1.81c1.928,1.454,4.192,2.487,6.663,2.949c0.749,0.14,1.519,0.219,2.301,0.25
	c0.219,0.01,0.433,0.032,0.652,0.032c3.609,0,6.93-1.209,9.603-3.222l8.043,7.878c0.523,0.514,1.205,0.769,1.885,0.769
	c0.699,0,1.396-0.271,1.924-0.808C50.236,39.372,50.219,37.667,49.156,36.625z M27.741,31.2c-0.194,0-0.384-0.019-0.576-0.027
	c-0.818-0.041-1.613-0.166-2.377-0.37c-0.692-0.185-1.355-0.432-1.988-0.735c-0.832-0.401-1.612-0.892-2.314-1.473
	c-0.394-0.326-0.757-0.683-1.102-1.058c-1.052-1.142-1.87-2.495-2.373-3.994c-0.336-1.003-0.528-2.069-0.561-3.176
	c-0.003-0.112-0.017-0.221-0.017-0.334c0-2.798,1.049-5.349,2.771-7.309c2.073-2.36,5.125-3.859,8.537-3.859
	c6.246,0,11.309,5,11.309,11.168C39.05,26.2,33.987,31.2,27.741,31.2z"/>
</svg>
